<svg xmlns="http://www.w3.org/2000/svg" viewBox="0 0 229.48 44.42"><defs><style>.cls-1{fill:#d3302f;}</style></defs><title>Fichier 6</title><g id="Calque_2" data-name="Calque 2"><g id="Calque_1-2" data-name="Calque 1"><path class="cls-1" d="M212.87,25.56h-4.6V42.42a.56.56,0,0,1-.61.49h-7a.54.54,0,0,1-.56-.49V.49a.54.54,0,0,1,.56-.49h13.85c2.45,0,14.53.12,14.53,12.75,0,6.56-3.61,10-7.91,11.53,2.7,6.07,5.58,11.95,8.28,18,.18.37-.06.67-.49.67h-7.66a.86.86,0,0,1-.56-.3Zm-4.6-7.84h6.25c1.78,0,6.38-.25,6.38-5s-5.09-5-6.38-5h-6.25Z"/><path class="cls-1" d="M178.12,17.06a.82.82,0,0,1-.82-.82V12.16a.82.82,0,0,1,.82-.82h11.24a.83.83,0,0,1,.83.82v4.08a.83.83,0,0,1-.83.82Z"/><path class="cls-1" d="M178.12,30.9a.83.83,0,0,1-.82-.83V26a.83.83,0,0,1,.82-.83h11.24a.83.83,0,0,1,.83.83v4.07a.83.83,0,0,1-.83.83Z"/><path class="cls-1" d="M14.3,26.07C6.63,24.35.55,21,.55,13.06.55,5.82,6.5.11,14.6.11s14.12,5.71,14.12,13V14a1.23,1.23,0,0,1-1.23,1.23h-6.2A1.23,1.23,0,0,1,20.07,14v-.92c0-2.45-2-4.6-5.47-4.6S9.27,10.3,9.27,12.75s2.27,3.81,5.46,4.42C23.26,18.89,29.58,22.45,29.58,31c0,8-6.26,13.44-15,13.44C6.14,44.42,0,38.46,0,31V29.14a1.23,1.23,0,0,1,1.23-1.23H7.42a1.23,1.23,0,0,1,1.23,1.23V31c0,2.82,2.15,5,5.95,5s6.08-2.15,6.08-5C20.68,28.34,18.9,27.11,14.3,26.07Z"/><path class="cls-1" d="M56.21,43.74a1.58,1.58,0,0,1-1.66-1L46.2,21.16c-.12-.37-.55-.25-.55.12V42.51a1.23,1.23,0,0,1-1.22,1.23H38.29a1.23,1.23,0,0,1-1.23-1.23V2A1.23,1.23,0,0,1,38.29.79h7.3a1.5,1.5,0,0,1,1.53,1.1l8.41,23.32c.12.37.55.24.55-.12V2A1.23,1.23,0,0,1,57.31.79h6.14A1.22,1.22,0,0,1,64.67,2v40.5a1.23,1.23,0,0,1-1.22,1.23Z"/><path class="cls-1" d="M82.9,34.54a.58.58,0,0,0,.61.61H98.05a1.23,1.23,0,0,1,1.23,1.23v6.13a1.23,1.23,0,0,1-1.23,1.23H75.53a1.23,1.23,0,0,1-1.22-1.23V2A1.22,1.22,0,0,1,75.53.79H97.81A1.23,1.23,0,0,1,99,2V8.15a1.24,1.24,0,0,1-1.23,1.23H83.51a.57.57,0,0,0-.61.61v7.37a.58.58,0,0,0,.61.61H97.32a1.23,1.23,0,0,1,1.22,1.23v6.13a1.23,1.23,0,0,1-1.22,1.23H83.51a.58.58,0,0,0-.61.61Z"/><path class="cls-1" d="M125.36,36.5c-.12-.49-.37-.92-.92-.92h-9.33c-.55,0-.8.37-.92.92l-1.72,6.32a1.18,1.18,0,0,1-1.16.92h-6.45c-1,0-1.35-.67-1.22-1.23l11-40.8a1.18,1.18,0,0,1,1.17-.92H124a1.18,1.18,0,0,1,1.16.92l10.93,40.8c.12.56-.25,1.23-1.23,1.23h-6.44a1.24,1.24,0,0,1-1.17-.92Zm-2.21-10.19-3-14.72c-.06-.19-.12-.25-.3-.25h-.13c-.18,0-.24.06-.3.25l-3,14.72c-.12.5.13.68.49.68h5.65C123,27,123.27,26.81,123.15,26.31Z"/><path class="cls-1" d="M151.13,26.25a.33.33,0,0,0-.61.19V42.51a1.24,1.24,0,0,1-1.23,1.23h-6.08A1.23,1.23,0,0,1,142,42.51V2A1.22,1.22,0,0,1,143.21.79h6.08A1.23,1.23,0,0,1,150.52,2V16.13a.33.33,0,0,0,.61.18L161.25,1.4A1.41,1.41,0,0,1,162.6.79h6.2a1.37,1.37,0,0,1,1,2.21L158.37,19.93a1.52,1.52,0,0,0,0,2L171,41.41a1.53,1.53,0,0,1-1.29,2.33H163a1.43,1.43,0,0,1-1.41-.74Z"/></g></g></svg>